<?xml version="1.0" encoding="utf-8"?>
<!-- Generator: Adobe Illustrator 26.0.1, SVG Export Plug-In . SVG Version: 6.00 Build 0)  -->
<svg version="1.1" id="Capa_1" xmlns="http://www.w3.org/2000/svg" xmlns:xlink="http://www.w3.org/1999/xlink" x="0px" y="0px"
	 viewBox="0 0 828.9 468.4" style="enable-background:new 0 0 828.9 468.4;" xml:space="preserve">
<style type="text/css">
	.st0{fill:#513388;}
	.st1{fill:#F4AD03;}
	.st2{fill:#DDF1FA;}
	.st3{clip-path:url(#SVGID_00000152965310234054900810000017274259162277136038_);}
	.st4{clip-path:url(#SVGID_00000107551484189406483200000000066896353311361931_);}
	.st5{fill:none;stroke:#F7AD10;stroke-width:5.1021;stroke-miterlimit:4.0001;}
	.st6{opacity:0.8;}
	.st7{clip-path:url(#SVGID_00000113310859368571453010000013233314059400896934_);fill:#513388;}
	.st8{enable-background:new    ;}
	.st9{opacity:0.53;}
	.st10{clip-path:url(#SVGID_00000073705578861970803580000010851067384667639168_);fill:#146B4D;}
	
		.st11{clip-path:url(#SVGID_00000013910579889768978760000005035164668045245577_);fill:none;stroke:#F7AD10;stroke-width:1.275;stroke-miterlimit:10;}
	.st12{fill:none;stroke:#F7AD10;stroke-width:2;stroke-linejoin:round;stroke-miterlimit:10;}
	.st13{clip-path:url(#SVGID_00000029755716304026194240000001064599545718673060_);fill:#513388;}
	.st14{fill:#FFFFFF;}
</style>
<g>
	<rect class="st0" width="828.9" height="468.4"/>
	<polygon class="st1" points="810.9,0 534.5,468.4 829.3,468.4 829.3,0 	"/>
</g>
<g>
	<path class="st2" d="M745.1,216.3c-57,0-103.2-46.2-103.2-103.2S688.1,9.8,745.1,9.8s103.2,46.2,103.2,103.2
		C848.4,170.1,802.1,216.3,745.1,216.3"/>
	<g>
		<g>
			<defs>
				<path id="SVGID_1_" d="M734.2,10.4c-51.9,5.4-92.4,49.3-92.4,102.7c0,57,46.2,103.2,103.2,103.2s103.2-46.2,103.2-103.2
					c0-53.3-40.5-97.2-92.4-102.7C756,10.4,734.2,10.4,734.2,10.4z"/>
			</defs>
			<clipPath id="SVGID_00000023990713323821245580000012637774875133613214_">
				<use xlink:href="#SVGID_1_"  style="overflow:visible;"/>
			</clipPath>
			<g style="clip-path:url(#SVGID_00000023990713323821245580000012637774875133613214_);">
				<g>
					<defs>
						<rect id="SVGID_00000054244669257678498470000009020948615071498378_" x="641.2" y="10.4" width="207.8" height="206.2"/>
					</defs>
					<clipPath id="SVGID_00000148640381507443597680000006607090465909631392_">
						<use xlink:href="#SVGID_00000054244669257678498470000009020948615071498378_"  style="overflow:visible;"/>
					</clipPath>
					<g transform="matrix(1 0 0 1 0 0)" style="clip-path:url(#SVGID_00000148640381507443597680000006607090465909631392_);">
						
							<image style="overflow:visible;enable-background:new    ;" width="714" height="707" xlink:href="E042AE134B53F772.jpeg"  transform="matrix(0.291 0 0 0.2908 641.2197 10.6777)">
						</image>
					</g>
				</g>
			</g>
		</g>
	</g>
	
		<ellipse transform="matrix(1 -5.082357e-03 5.082357e-03 1 -0.565 3.7885)" class="st5" cx="745.1" cy="113.1" rx="103.2" ry="103.3"/>
	<g class="st6">
		<g>
			<g>
				<defs>
					<rect id="SVGID_00000118374241043855467540000016525359640197118893_" x="740.1" y="44.7" width="69.2" height="34.1"/>
				</defs>
				<clipPath id="SVGID_00000097471490464634766300000009393824010211474314_">
					<use xlink:href="#SVGID_00000118374241043855467540000016525359640197118893_"  style="overflow:visible;"/>
				</clipPath>
				<path style="clip-path:url(#SVGID_00000097471490464634766300000009393824010211474314_);fill:#513388;" d="M745,58.7h43
					l3.6-13.4l3.6,13.4h11.3c1.4,0,2.5,1.6,2.2,3.3l-2,13.8c-0.2,1.3-1.1,2.3-2.2,2.3h-61.4c-1.4,0-2.5-1.6-2.2-3.3l2-13.8
					C742.9,59.7,743.9,58.7,745,58.7"/>
			</g>
		</g>
	</g>
	<g>
		<g class="st8">
			<path class="st1" d="M749,67.1c-0.4,0-0.8-0.1-1.1-0.2s-0.6-0.3-0.9-0.6c-0.3-0.3-0.5-0.6-0.6-1c-0.1-0.4-0.2-0.8-0.2-1.4
				c0-0.5,0.1-1,0.2-1.4c0.2-0.4,0.4-0.7,0.6-1c0.3-0.3,0.6-0.5,0.9-0.6c0.3-0.1,0.7-0.2,1.1-0.2c0.4,0,0.7,0.1,1.1,0.2
				s0.6,0.3,0.8,0.6l-0.7,0.9c-0.2-0.1-0.3-0.3-0.5-0.4c-0.2-0.1-0.4-0.1-0.6-0.1c-0.2,0-0.4,0-0.6,0.1c-0.2,0.1-0.3,0.2-0.5,0.4
				c-0.1,0.2-0.2,0.4-0.3,0.6s-0.1,0.5-0.1,0.8c0,0.6,0.1,1.1,0.4,1.5c0.3,0.3,0.6,0.5,1.1,0.5c0.2,0,0.5-0.1,0.7-0.2
				c0.2-0.1,0.4-0.2,0.5-0.4l0.7,0.9C750.4,66.8,749.8,67.1,749,67.1z"/>
		</g>
		<g class="st8">
			<path class="st1" d="M752.7,67.1c-0.2,0-0.4-0.1-0.6-0.2c-0.2-0.2-0.2-0.4-0.2-0.6c0-0.2,0.1-0.5,0.2-0.6
				c0.2-0.2,0.4-0.2,0.6-0.2c0.2,0,0.4,0.1,0.6,0.2c0.2,0.2,0.2,0.4,0.2,0.6c0,0.2-0.1,0.4-0.2,0.6C753.1,67,752.9,67.1,752.7,67.1z
				"/>
		</g>
		<g class="st8">
			<path class="st1" d="M754.8,67v-6.1h1.4v2.3h2.1v-2.3h1.4V67h-1.4v-2.5h-2.1V67H754.8z"/>
		</g>
		<g class="st8">
			<path class="st1" d="M761.8,67.1c-0.2,0-0.4-0.1-0.6-0.2c-0.2-0.2-0.2-0.4-0.2-0.6c0-0.2,0.1-0.5,0.2-0.6
				c0.2-0.2,0.4-0.2,0.6-0.2c0.2,0,0.4,0.1,0.6,0.2c0.2,0.2,0.2,0.4,0.2,0.6c0,0.2-0.1,0.4-0.2,0.6C762.3,67,762.1,67.1,761.8,67.1z
				"/>
		</g>
		<g class="st8">
			<path class="st1" d="M767.7,67.1c-0.4,0-0.8-0.1-1.2-0.2c-0.4-0.1-0.7-0.4-1.1-0.7l0.8-0.9c0.2,0.2,0.5,0.3,0.7,0.5
				s0.5,0.2,0.8,0.2c0.3,0,0.5-0.1,0.6-0.2c0.1-0.1,0.2-0.2,0.2-0.4c0-0.1,0-0.2-0.1-0.2c0-0.1-0.1-0.1-0.2-0.2
				c-0.1-0.1-0.2-0.1-0.3-0.1c-0.1,0-0.2-0.1-0.4-0.2l-0.8-0.3c-0.2-0.1-0.3-0.1-0.5-0.2c-0.1-0.1-0.3-0.2-0.4-0.4
				c-0.1-0.1-0.2-0.3-0.3-0.5s-0.1-0.4-0.1-0.6c0-0.2,0.1-0.5,0.2-0.7c0.1-0.2,0.3-0.4,0.4-0.6s0.4-0.3,0.7-0.4
				c0.3-0.1,0.6-0.1,0.9-0.1c0.4,0,0.7,0.1,1.1,0.2c0.3,0.1,0.6,0.3,0.9,0.6l-0.7,0.9c-0.2-0.2-0.4-0.3-0.6-0.4
				c-0.2-0.1-0.4-0.1-0.7-0.1c-0.2,0-0.4,0-0.6,0.1c-0.1,0.1-0.2,0.2-0.2,0.4c0,0.1,0,0.2,0.1,0.2s0.1,0.1,0.2,0.2s0.2,0.1,0.3,0.1
				s0.2,0.1,0.4,0.2l0.8,0.3c0.4,0.2,0.7,0.4,0.9,0.6s0.3,0.6,0.3,1c0,0.3-0.1,0.5-0.2,0.7c-0.1,0.2-0.3,0.4-0.4,0.6
				c-0.2,0.2-0.4,0.3-0.7,0.4C768.4,67.1,768,67.1,767.7,67.1z"/>
		</g>
		<g class="st8">
			<path class="st1" d="M772.1,67.1c-0.2,0-0.4,0-0.6-0.1c-0.2-0.1-0.3-0.2-0.4-0.3c-0.1-0.1-0.2-0.3-0.3-0.4
				c-0.1-0.2-0.1-0.4-0.1-0.6c0-0.5,0.2-0.9,0.6-1.1c0.4-0.3,1.1-0.5,2-0.6c0-0.2-0.1-0.4-0.2-0.5c-0.1-0.1-0.3-0.2-0.5-0.2
				c-0.2,0-0.4,0-0.6,0.1c-0.2,0.1-0.4,0.2-0.6,0.3l-0.5-0.9c0.3-0.2,0.6-0.3,0.9-0.4s0.7-0.2,1-0.2c0.6,0,1.1,0.2,1.4,0.5
				s0.5,0.9,0.5,1.6V67h-1.1l-0.1-0.5h0c-0.2,0.2-0.4,0.3-0.6,0.4C772.6,67.1,772.3,67.1,772.1,67.1z M772.5,66.1
				c0.2,0,0.3,0,0.4-0.1s0.2-0.2,0.4-0.3v-0.8c-0.5,0.1-0.8,0.2-1,0.3s-0.3,0.3-0.3,0.5c0,0.2,0,0.3,0.1,0.3
				C772.2,66,772.4,66.1,772.5,66.1z"/>
		</g>
		<g class="st8">
			<path class="st1" d="M775.8,67v-4.6h1.1L777,63h0c0.2-0.2,0.4-0.4,0.7-0.5c0.2-0.1,0.5-0.2,0.8-0.2c0.5,0,0.9,0.2,1.1,0.5
				s0.3,0.8,0.3,1.4V67h-1.4v-2.7c0-0.3,0-0.6-0.1-0.7c-0.1-0.1-0.2-0.2-0.4-0.2c-0.2,0-0.3,0-0.4,0.1c-0.1,0.1-0.3,0.2-0.4,0.3V67
				H775.8z"/>
			<path class="st1" d="M784.5,67.1c-0.5,0-0.9-0.1-1.2-0.3s-0.6-0.5-0.8-0.8l0.9-0.7c0.1,0.2,0.2,0.4,0.4,0.5
				c0.2,0.1,0.3,0.1,0.5,0.1c0.2,0,0.4-0.1,0.6-0.2c0.1-0.2,0.2-0.4,0.2-0.8v-4h1.4V65c0,0.3,0,0.6-0.1,0.8
				c-0.1,0.3-0.2,0.5-0.4,0.7c-0.2,0.2-0.4,0.3-0.6,0.5C785.2,67.1,784.9,67.1,784.5,67.1z"/>
		</g>
		<g class="st8">
			<path class="st1" d="M789.2,67.1c-0.5,0-0.9-0.2-1.1-0.5c-0.2-0.3-0.3-0.8-0.3-1.4v-2.9h1.4v2.7c0,0.3,0,0.6,0.1,0.7
				c0.1,0.1,0.2,0.2,0.4,0.2c0.2,0,0.3,0,0.4-0.1c0.1-0.1,0.2-0.2,0.4-0.4v-3.1h1.4V67h-1.1l-0.1-0.6h0c-0.2,0.2-0.4,0.4-0.6,0.6
				C789.8,67.1,789.5,67.1,789.2,67.1z"/>
		</g>
		<g class="st8">
			<path class="st1" d="M794.2,67.1c-0.2,0-0.4,0-0.6-0.1c-0.2-0.1-0.3-0.2-0.4-0.3c-0.1-0.1-0.2-0.3-0.3-0.4
				c-0.1-0.2-0.1-0.4-0.1-0.6c0-0.5,0.2-0.9,0.6-1.1c0.4-0.3,1.1-0.5,2-0.6c0-0.2-0.1-0.4-0.2-0.5c-0.1-0.1-0.3-0.2-0.5-0.2
				c-0.2,0-0.4,0-0.6,0.1c-0.2,0.1-0.4,0.2-0.6,0.3l-0.5-0.9c0.3-0.2,0.6-0.3,0.9-0.4s0.7-0.2,1-0.2c0.6,0,1.1,0.2,1.4,0.5
				s0.5,0.9,0.5,1.6V67h-1.1l-0.1-0.5h0c-0.2,0.2-0.4,0.3-0.6,0.4C794.7,67.1,794.5,67.1,794.2,67.1z M794.7,66.1
				c0.2,0,0.3,0,0.4-0.1s0.2-0.2,0.4-0.3v-0.8c-0.5,0.1-0.8,0.2-1,0.3s-0.3,0.3-0.3,0.5c0,0.2,0,0.3,0.1,0.3
				C794.4,66,794.5,66.1,794.7,66.1z"/>
		</g>
		<g class="st8">
			<path class="st1" d="M798,67v-4.6h1.1l0.1,0.6h0c0.2-0.2,0.4-0.4,0.7-0.5c0.2-0.1,0.5-0.2,0.8-0.2c0.5,0,0.9,0.2,1.1,0.5
				s0.3,0.8,0.3,1.4V67h-1.4v-2.7c0-0.3,0-0.6-0.1-0.7c-0.1-0.1-0.2-0.2-0.4-0.2c-0.2,0-0.3,0-0.4,0.1c-0.1,0.1-0.3,0.2-0.4,0.3V67
				H798z"/>
		</g>
	</g>
	<g>
		<g class="st8">
			<path class="st1" d="M761.7,76.2c-0.3,0-0.5-0.1-0.8-0.2c-0.2-0.1-0.4-0.3-0.6-0.5c-0.2-0.2-0.3-0.5-0.4-0.8
				c-0.1-0.3-0.1-0.6-0.1-1c0-0.4,0.1-0.7,0.2-1c0.1-0.3,0.3-0.6,0.4-0.8c0.2-0.2,0.4-0.4,0.6-0.5s0.5-0.2,0.7-0.2
				c0.3,0,0.5,0,0.6,0.1c0.2,0.1,0.3,0.2,0.5,0.4l-0.1-0.7v-1.6h1.4v6.6h-1.1l-0.1-0.5h0c-0.2,0.2-0.4,0.3-0.6,0.4
				C762.1,76.2,761.9,76.2,761.7,76.2z M762,75.1c0.2,0,0.3,0,0.4-0.1c0.1-0.1,0.2-0.2,0.4-0.3v-1.9c-0.1-0.1-0.3-0.2-0.4-0.2
				c-0.1,0-0.3-0.1-0.4-0.1c-0.2,0-0.4,0.1-0.6,0.3c-0.2,0.2-0.3,0.5-0.3,1c0,0.5,0.1,0.8,0.2,1C761.6,75,761.8,75.1,762,75.1z"/>
			<path class="st1" d="M767.5,76.2c-0.3,0-0.6-0.1-0.9-0.2c-0.3-0.1-0.5-0.3-0.7-0.5s-0.4-0.5-0.5-0.8c-0.1-0.3-0.2-0.6-0.2-1
				c0-0.4,0.1-0.7,0.2-1s0.3-0.6,0.5-0.8s0.4-0.4,0.7-0.5s0.5-0.2,0.8-0.2c0.3,0,0.6,0.1,0.9,0.2s0.5,0.3,0.6,0.5
				c0.2,0.2,0.3,0.4,0.4,0.7c0.1,0.3,0.1,0.6,0.1,0.9c0,0.1,0,0.2,0,0.4c0,0.1,0,0.2,0,0.3h-2.8c0.1,0.3,0.2,0.6,0.4,0.7
				c0.2,0.2,0.5,0.2,0.8,0.2c0.3,0,0.7-0.1,1-0.3l0.5,0.8c-0.2,0.2-0.5,0.3-0.8,0.4C768,76.2,767.7,76.2,767.5,76.2z M766.4,73.3
				h1.7c0-0.3-0.1-0.5-0.2-0.6c-0.1-0.2-0.3-0.2-0.6-0.2c-0.2,0-0.4,0.1-0.6,0.2S766.5,73,766.4,73.3z"/>
		</g>
		<g class="st8">
			<path class="st1" d="M772.2,76.1V70h1.7c0.5,0,0.9,0.1,1.3,0.2c0.4,0.1,0.7,0.3,1,0.5c0.3,0.2,0.5,0.6,0.6,0.9s0.2,0.8,0.2,1.4
				s-0.1,1-0.2,1.4s-0.3,0.7-0.6,1c-0.3,0.3-0.6,0.4-0.9,0.6c-0.4,0.1-0.8,0.2-1.2,0.2H772.2z M773.6,75h0.3c0.3,0,0.5,0,0.7-0.1
				c0.2-0.1,0.4-0.2,0.5-0.3c0.1-0.2,0.3-0.4,0.4-0.6c0.1-0.2,0.1-0.6,0.1-0.9c0-0.4,0-0.7-0.1-0.9c-0.1-0.2-0.2-0.4-0.4-0.6
				s-0.3-0.3-0.5-0.3s-0.4-0.1-0.7-0.1h-0.3V75z"/>
		</g>
		<g class="st8">
			<path class="st1" d="M778.7,70.8c-0.2,0-0.4-0.1-0.6-0.2c-0.2-0.1-0.2-0.3-0.2-0.5s0.1-0.4,0.2-0.5c0.1-0.1,0.3-0.2,0.6-0.2
				c0.2,0,0.4,0.1,0.6,0.2s0.2,0.3,0.2,0.5s-0.1,0.4-0.2,0.5C779.2,70.7,779,70.8,778.7,70.8z M778.1,76.1v-4.6h1.4v4.6H778.1z"/>
		</g>
		<g class="st8">
			<path class="st1" d="M782.6,76.2c-0.3,0-0.6-0.1-0.9-0.2c-0.3-0.1-0.5-0.3-0.7-0.5c-0.2-0.2-0.4-0.5-0.5-0.8
				c-0.1-0.3-0.2-0.6-0.2-1c0-0.4,0.1-0.7,0.2-1c0.1-0.3,0.3-0.6,0.5-0.8c0.2-0.2,0.5-0.4,0.7-0.5c0.3-0.1,0.6-0.2,0.9-0.2
				s0.6,0.1,0.8,0.2c0.3,0.1,0.5,0.3,0.7,0.5c0.2,0.2,0.4,0.5,0.5,0.8c0.1,0.3,0.2,0.6,0.2,1c0,0.4-0.1,0.7-0.2,1
				c-0.1,0.3-0.3,0.6-0.5,0.8c-0.2,0.2-0.4,0.4-0.7,0.5C783.2,76.2,782.9,76.2,782.6,76.2z M782.6,75.1c0.3,0,0.5-0.1,0.6-0.4
				c0.1-0.2,0.2-0.6,0.2-1s-0.1-0.7-0.2-1c-0.1-0.2-0.4-0.4-0.6-0.4c-0.3,0-0.5,0.1-0.6,0.4c-0.1,0.2-0.2,0.6-0.2,1s0.1,0.7,0.2,1
				C782.1,75,782.3,75.1,782.6,75.1z"/>
		</g>
		<g class="st8">
			<path class="st1" d="M787.1,76.2c-0.3,0-0.6-0.1-0.9-0.2c-0.3-0.1-0.6-0.3-0.8-0.5l0.6-0.9c0.2,0.2,0.4,0.3,0.6,0.4
				s0.4,0.1,0.6,0.1c0.2,0,0.4,0,0.4-0.1s0.1-0.2,0.1-0.3c0-0.1,0-0.1-0.1-0.2c-0.1-0.1-0.1-0.1-0.2-0.2c-0.1,0-0.2-0.1-0.3-0.1
				c-0.1,0-0.2-0.1-0.3-0.1c-0.1-0.1-0.3-0.1-0.4-0.2c-0.1-0.1-0.3-0.2-0.4-0.3c-0.1-0.1-0.2-0.2-0.3-0.4c-0.1-0.1-0.1-0.3-0.1-0.5
				c0-0.2,0-0.4,0.1-0.6s0.2-0.3,0.4-0.5c0.2-0.1,0.3-0.2,0.6-0.3c0.2-0.1,0.5-0.1,0.7-0.1c0.4,0,0.7,0.1,0.9,0.2
				c0.3,0.1,0.5,0.3,0.7,0.4l-0.6,0.8c-0.2-0.1-0.3-0.2-0.5-0.3c-0.2-0.1-0.3-0.1-0.5-0.1c-0.3,0-0.5,0.1-0.5,0.4
				c0,0.1,0,0.1,0.1,0.2c0.1,0.1,0.1,0.1,0.2,0.1s0.2,0.1,0.3,0.1c0.1,0,0.2,0.1,0.3,0.1c0.1,0.1,0.3,0.1,0.4,0.2
				c0.1,0.1,0.3,0.2,0.4,0.3c0.1,0.1,0.2,0.2,0.3,0.4s0.1,0.3,0.1,0.5s0,0.4-0.1,0.6s-0.2,0.3-0.4,0.5s-0.4,0.2-0.6,0.3
				S787.4,76.2,787.1,76.2z"/>
		</g>
	</g>
	<g class="st9">
		<g>
			<g>
				<defs>
					<rect id="SVGID_00000140010729278766625710000011292396484856638885_" x="707.8" y="126.6" width="22.4" height="7.4"/>
				</defs>
				<clipPath id="SVGID_00000093161696600105867440000011666952637400038813_">
					<use xlink:href="#SVGID_00000140010729278766625710000011292396484856638885_"  style="overflow:visible;"/>
				</clipPath>
				<path style="clip-path:url(#SVGID_00000093161696600105867440000011666952637400038813_);fill:#146B4D;" d="M719,133
					c5.6,0,10.2-1.2,10.2-2.7s-4.6-2.7-10.2-2.7c-5.6,0-10.2,1.2-10.2,2.7C708.8,131.8,713.3,133,719,133"/>
			</g>
			<g>
				<defs>
					<rect id="SVGID_00000039121323007150476700000009064657848604790420_" x="707.8" y="126.6" width="22.4" height="7.4"/>
				</defs>
				<clipPath id="SVGID_00000111159796125044120300000006992113670100866961_">
					<use xlink:href="#SVGID_00000039121323007150476700000009064657848604790420_"  style="overflow:visible;"/>
				</clipPath>
				
					<path style="clip-path:url(#SVGID_00000111159796125044120300000006992113670100866961_);fill:none;stroke:#F7AD10;stroke-width:1.275;stroke-miterlimit:10;" d="
					M719,133c5.6,0,10.2-1.2,10.2-2.7s-4.6-2.7-10.2-2.7c-5.6,0-10.2,1.2-10.2,2.7C708.8,131.8,713.3,133,719,133z"/>
			</g>
		</g>
	</g>
	<polygon class="st12" points="712.1,167.3 805.1,122.1 805.4,116.2 806.8,115.4 806.7,114.1 790.1,107.2 783.6,106.5 765.1,111.4 
		757,109.2 756.8,105.2 748.8,106.8 748.8,107.9 727.4,111.7 725.4,110.5 718.6,111.4 718.6,110 675.3,118 675.3,119.5 657.8,123.5 
		654.1,124.6 657.7,135.9 685.4,128.2 692.5,133.1 693.1,137.8 697.8,136.5 706,142.1 707.1,162.2 	"/>
	<g class="st6">
		<g>
			<g>
				<defs>
					<rect id="SVGID_00000060018364185315946030000011878458091893952959_" x="690.2" y="96.8" width="60.4" height="34.1"/>
				</defs>
				<clipPath id="SVGID_00000122719117143776722110000004053953101011222931_">
					<use xlink:href="#SVGID_00000060018364185315946030000011878458091893952959_"  style="overflow:visible;"/>
				</clipPath>
				<path style="clip-path:url(#SVGID_00000122719117143776722110000004053953101011222931_);fill:#513388;" d="M745.7,116.8h-23.1
					l-3.6,13.5l-3.6-13.4h-22.3c-1.4,0-2.5-1.6-2.2-3.3l2-13.8c0.2-1.3,1.1-2.3,2.2-2.3h52.6c1.4,0,2.5,1.6,2.2,3.3l-2,13.8
					C747.7,115.9,746.8,116.8,745.7,116.8"/>
			</g>
		</g>
	</g>
	<g class="st8">
		<path class="st14" d="M705.5,105.4v-6.1h2.1c0.3,0,0.7,0,0.9,0.1s0.5,0.2,0.8,0.3c0.2,0.2,0.4,0.4,0.5,0.6
			c0.1,0.3,0.2,0.6,0.2,0.9c0,0.4-0.1,0.7-0.2,0.9s-0.3,0.5-0.5,0.6c-0.2,0.2-0.5,0.3-0.8,0.4s-0.6,0.1-0.9,0.1h-0.8v2.1H705.5z
			 M706.8,102.3h0.7c0.7,0,1.1-0.3,1.1-1c0-0.3-0.1-0.5-0.3-0.7s-0.5-0.2-0.9-0.2h-0.6V102.3z"/>
	</g>
	<g class="st8">
		<path class="st14" d="M710.8,105.4v-4.6h1.1l0.1,0.8h0c0.2-0.3,0.4-0.6,0.6-0.7s0.5-0.2,0.7-0.2c0.1,0,0.2,0,0.3,0s0.2,0,0.2,0.1
			l-0.2,1.2c-0.1,0-0.2,0-0.2-0.1c-0.1,0-0.2,0-0.3,0c-0.2,0-0.4,0.1-0.5,0.2c-0.2,0.1-0.3,0.3-0.5,0.7v2.7H710.8z"/>
	</g>
	<g class="st8">
		<path class="st14" d="M716.6,105.5c-0.3,0-0.6-0.1-0.9-0.2c-0.3-0.1-0.5-0.3-0.7-0.5s-0.4-0.5-0.5-0.8c-0.1-0.3-0.2-0.6-0.2-1
			c0-0.4,0.1-0.7,0.2-1c0.1-0.3,0.3-0.6,0.5-0.8s0.4-0.4,0.7-0.5s0.5-0.2,0.8-0.2c0.3,0,0.6,0.1,0.9,0.2s0.5,0.3,0.6,0.5
			c0.2,0.2,0.3,0.4,0.4,0.7c0.1,0.3,0.1,0.6,0.1,0.9c0,0.1,0,0.2,0,0.4s0,0.2,0,0.3h-2.8c0.1,0.3,0.2,0.6,0.4,0.7
			c0.2,0.2,0.5,0.2,0.8,0.2c0.3,0,0.7-0.1,1-0.3l0.5,0.8c-0.2,0.2-0.5,0.3-0.8,0.4C717.1,105.5,716.8,105.5,716.6,105.5z
			 M715.5,102.6h1.7c0-0.3-0.1-0.5-0.2-0.6c-0.1-0.2-0.3-0.2-0.6-0.2c-0.2,0-0.4,0.1-0.6,0.2S715.6,102.3,715.5,102.6z"/>
	</g>
	<g class="st8">
		<path class="st14" d="M721,105.5c-0.3,0-0.5-0.1-0.8-0.2c-0.2-0.1-0.4-0.3-0.6-0.5c-0.2-0.2-0.3-0.5-0.4-0.8
			c-0.1-0.3-0.1-0.6-0.1-1c0-0.4,0.1-0.7,0.2-1c0.1-0.3,0.3-0.6,0.4-0.8s0.4-0.4,0.6-0.5s0.5-0.2,0.7-0.2c0.3,0,0.5,0,0.6,0.1
			c0.2,0.1,0.3,0.2,0.5,0.4l-0.1-0.7v-1.6h1.4v6.6h-1.1l-0.1-0.5h0c-0.2,0.2-0.4,0.3-0.6,0.4C721.4,105.5,721.2,105.5,721,105.5z
			 M721.3,104.4c0.2,0,0.3,0,0.4-0.1c0.1-0.1,0.2-0.2,0.4-0.3v-1.9c-0.1-0.1-0.3-0.2-0.4-0.2c-0.1,0-0.3-0.1-0.4-0.1
			c-0.2,0-0.4,0.1-0.6,0.3c-0.2,0.2-0.3,0.5-0.3,1c0,0.5,0.1,0.8,0.2,1C720.9,104.3,721.1,104.4,721.3,104.4z"/>
	</g>
	<g class="st8">
		<path class="st14" d="M725.4,100.1c-0.2,0-0.4-0.1-0.6-0.2c-0.1-0.1-0.2-0.3-0.2-0.5s0.1-0.4,0.2-0.5s0.3-0.2,0.6-0.2
			c0.2,0,0.4,0.1,0.6,0.2s0.2,0.3,0.2,0.5s-0.1,0.4-0.2,0.5C725.8,100,725.6,100.1,725.4,100.1z M724.7,105.4v-4.6h1.4v4.6H724.7z"
			/>
	</g>
	<g class="st8">
		<path class="st14" d="M729.2,105.5c-0.3,0-0.6-0.1-0.9-0.2c-0.3-0.1-0.5-0.3-0.7-0.5c-0.2-0.2-0.4-0.5-0.5-0.8
			c-0.1-0.3-0.2-0.6-0.2-1c0-0.4,0.1-0.7,0.2-1c0.1-0.3,0.3-0.6,0.5-0.8c0.2-0.2,0.5-0.4,0.7-0.5s0.6-0.2,0.9-0.2s0.6,0.1,0.8,0.2
			c0.3,0.1,0.5,0.3,0.7,0.5c0.2,0.2,0.4,0.5,0.5,0.8c0.1,0.3,0.2,0.6,0.2,1c0,0.4-0.1,0.7-0.2,1c-0.1,0.3-0.3,0.6-0.5,0.8
			c-0.2,0.2-0.4,0.4-0.7,0.5C729.8,105.5,729.5,105.5,729.2,105.5z M729.2,104.4c0.3,0,0.5-0.1,0.6-0.4c0.1-0.2,0.2-0.6,0.2-1
			s-0.1-0.7-0.2-1c-0.1-0.2-0.4-0.4-0.6-0.4c-0.3,0-0.5,0.1-0.6,0.4c-0.1,0.2-0.2,0.6-0.2,1s0.1,0.7,0.2,1
			C728.7,104.3,728.9,104.4,729.2,104.4z"/>
	</g>
	<g class="st8">
		<path class="st14" d="M733.7,105.5c-0.3,0-0.6-0.1-0.9-0.2c-0.3-0.1-0.6-0.3-0.8-0.5l0.6-0.9c0.2,0.2,0.4,0.3,0.6,0.4
			c0.2,0.1,0.4,0.1,0.6,0.1c0.2,0,0.4,0,0.4-0.1s0.1-0.2,0.1-0.3c0-0.1,0-0.1-0.1-0.2c-0.1-0.1-0.1-0.1-0.2-0.2s-0.2-0.1-0.3-0.1
			c-0.1,0-0.2-0.1-0.3-0.1c-0.1-0.1-0.3-0.1-0.4-0.2c-0.1-0.1-0.3-0.2-0.4-0.3c-0.1-0.1-0.2-0.2-0.3-0.4c-0.1-0.1-0.1-0.3-0.1-0.5
			c0-0.2,0-0.4,0.1-0.6s0.2-0.3,0.4-0.5s0.3-0.2,0.6-0.3c0.2-0.1,0.5-0.1,0.7-0.1c0.4,0,0.7,0.1,0.9,0.2c0.3,0.1,0.5,0.3,0.7,0.4
			l-0.6,0.8c-0.2-0.1-0.3-0.2-0.5-0.3c-0.2-0.1-0.3-0.1-0.5-0.1c-0.3,0-0.5,0.1-0.5,0.4c0,0.1,0,0.1,0.1,0.2c0,0.1,0.1,0.1,0.2,0.1
			s0.2,0.1,0.3,0.1c0.1,0,0.2,0.1,0.3,0.1c0.2,0.1,0.3,0.1,0.4,0.2c0.1,0.1,0.3,0.2,0.4,0.3c0.1,0.1,0.2,0.2,0.3,0.4
			c0.1,0.2,0.1,0.3,0.1,0.5s0,0.4-0.1,0.6c-0.1,0.2-0.2,0.3-0.4,0.5s-0.4,0.2-0.6,0.3C734.3,105.5,734,105.5,733.7,105.5z"/>
	</g>
	<g class="st8">
		<path class="st14" d="M699.3,114.5l-1.8-6.1h1.5l0.7,2.8c0.1,0.3,0.2,0.7,0.2,1s0.2,0.6,0.2,1h0c0.1-0.3,0.2-0.7,0.2-1
			s0.2-0.6,0.2-1l0.7-2.8h1.4l-1.8,6.1H699.3z"/>
	</g>
	<g class="st8">
		<path class="st14" d="M704.1,109.2c-0.2,0-0.4-0.1-0.6-0.2c-0.1-0.1-0.2-0.3-0.2-0.5s0.1-0.4,0.2-0.5s0.3-0.2,0.6-0.2
			c0.2,0,0.4,0.1,0.6,0.2s0.2,0.3,0.2,0.5s-0.1,0.4-0.2,0.5C704.6,109.1,704.4,109.2,704.1,109.2z M703.4,114.5v-4.6h1.4v4.6H703.4z
			"/>
	</g>
	<g class="st8">
		<path class="st14" d="M707.3,114.6c-0.2,0-0.4,0-0.6-0.1s-0.3-0.2-0.4-0.3c-0.1-0.1-0.2-0.3-0.2-0.5c0-0.2-0.1-0.4-0.1-0.6V108
			h1.4v5.2c0,0.1,0,0.2,0.1,0.3c0.1,0.1,0.1,0.1,0.2,0.1c0,0,0.1,0,0.1,0c0,0,0.1,0,0.1,0l0.2,1c-0.1,0-0.2,0.1-0.3,0.1
			C707.5,114.6,707.4,114.6,707.3,114.6z"/>
		<path class="st14" d="M709.9,114.6c-0.2,0-0.4,0-0.6-0.1s-0.3-0.2-0.4-0.3c-0.1-0.1-0.2-0.3-0.2-0.5c0-0.2-0.1-0.4-0.1-0.6V108
			h1.4v5.2c0,0.1,0,0.2,0.1,0.3c0.1,0.1,0.1,0.1,0.2,0.1c0,0,0.1,0,0.1,0c0,0,0.1,0,0.1,0l0.2,1c-0.1,0-0.2,0.1-0.3,0.1
			C710.2,114.6,710.1,114.6,709.9,114.6z"/>
		<path class="st14" d="M712.5,114.6c-0.2,0-0.4,0-0.6-0.1c-0.2-0.1-0.3-0.2-0.4-0.3c-0.1-0.1-0.2-0.3-0.3-0.4
			c-0.1-0.2-0.1-0.4-0.1-0.6c0-0.5,0.2-0.9,0.6-1.1c0.4-0.3,1.1-0.5,2-0.6c0-0.2-0.1-0.4-0.2-0.5c-0.1-0.1-0.3-0.2-0.5-0.2
			c-0.2,0-0.4,0-0.6,0.1c-0.2,0.1-0.4,0.2-0.6,0.3l-0.5-0.9c0.3-0.2,0.6-0.3,0.9-0.4s0.7-0.2,1-0.2c0.6,0,1.1,0.2,1.4,0.5
			s0.5,0.9,0.5,1.6v2.7H714l-0.1-0.5h0c-0.2,0.2-0.4,0.3-0.6,0.4C713,114.6,712.8,114.6,712.5,114.6z M713,113.6
			c0.2,0,0.3,0,0.4-0.1s0.2-0.2,0.4-0.3v-0.8c-0.5,0.1-0.8,0.2-1,0.3s-0.3,0.3-0.3,0.5c0,0.2,0,0.3,0.1,0.3
			C712.7,113.5,712.8,113.6,713,113.6z"/>
	</g>
	<g class="st8">
		<path class="st14" d="M719.6,114.6c-0.5,0-0.9-0.1-1.2-0.3c-0.3-0.2-0.6-0.5-0.8-0.8l0.9-0.7c0.1,0.2,0.2,0.4,0.4,0.5
			c0.1,0.1,0.3,0.1,0.5,0.1c0.2,0,0.4-0.1,0.6-0.2c0.1-0.2,0.2-0.4,0.2-0.8v-4h1.4v4.1c0,0.3,0,0.6-0.1,0.8
			c-0.1,0.3-0.2,0.5-0.4,0.7c-0.2,0.2-0.4,0.3-0.6,0.5C720.3,114.6,720,114.6,719.6,114.6z"/>
	</g>
	<g class="st8">
		<path class="st14" d="M724,114.6c-0.2,0-0.4,0-0.6-0.1c-0.2-0.1-0.3-0.2-0.4-0.3c-0.1-0.1-0.2-0.3-0.3-0.4
			c-0.1-0.2-0.1-0.4-0.1-0.6c0-0.5,0.2-0.9,0.6-1.1c0.4-0.3,1.1-0.5,2-0.6c0-0.2-0.1-0.4-0.2-0.5c-0.1-0.1-0.3-0.2-0.5-0.2
			c-0.2,0-0.4,0-0.6,0.1c-0.2,0.1-0.4,0.2-0.6,0.3l-0.5-0.9c0.3-0.2,0.6-0.3,0.9-0.4c0.3-0.1,0.7-0.2,1-0.2c0.6,0,1.1,0.2,1.4,0.5
			c0.3,0.3,0.5,0.9,0.5,1.6v2.7h-1.1l-0.1-0.5h0c-0.2,0.2-0.4,0.3-0.6,0.4C724.5,114.6,724.2,114.6,724,114.6z M724.5,113.6
			c0.2,0,0.3,0,0.4-0.1s0.2-0.2,0.4-0.3v-0.8c-0.5,0.1-0.8,0.2-1,0.3s-0.3,0.3-0.3,0.5c0,0.2,0,0.3,0.1,0.3
			C724.2,113.5,724.3,113.6,724.5,113.6z"/>
	</g>
	<g class="st8">
		<path class="st14" d="M728.7,114.5l-1.6-4.6h1.4l0.6,2.2c0.1,0.2,0.1,0.5,0.2,0.7c0.1,0.2,0.1,0.5,0.2,0.7h0
			c0.1-0.2,0.1-0.5,0.2-0.7c0.1-0.2,0.1-0.5,0.2-0.7l0.6-2.2h1.3l-1.5,4.6H728.7z"/>
	</g>
	<g class="st8">
		<path class="st14" d="M733.1,109.2c-0.2,0-0.4-0.1-0.6-0.2c-0.1-0.1-0.2-0.3-0.2-0.5s0.1-0.4,0.2-0.5c0.2-0.1,0.3-0.2,0.6-0.2
			c0.2,0,0.4,0.1,0.6,0.2s0.2,0.3,0.2,0.5s-0.1,0.4-0.2,0.5C733.6,109.1,733.4,109.2,733.1,109.2z M732.5,114.5v-4.6h1.4v4.6H732.5z
			"/>
	</g>
	<g class="st8">
		<path class="st14" d="M737.1,114.6c-0.3,0-0.6-0.1-0.9-0.2c-0.3-0.1-0.5-0.3-0.7-0.5s-0.4-0.5-0.5-0.8c-0.1-0.3-0.2-0.6-0.2-1
			c0-0.4,0.1-0.7,0.2-1c0.1-0.3,0.3-0.6,0.5-0.8c0.2-0.2,0.4-0.4,0.7-0.5s0.5-0.2,0.8-0.2c0.3,0,0.6,0.1,0.9,0.2s0.5,0.3,0.6,0.5
			c0.2,0.2,0.3,0.4,0.4,0.7c0.1,0.3,0.1,0.6,0.1,0.9c0,0.1,0,0.2,0,0.4c0,0.1,0,0.2,0,0.3h-2.8c0.1,0.3,0.2,0.6,0.4,0.7
			c0.2,0.2,0.5,0.2,0.8,0.2c0.3,0,0.7-0.1,1-0.3l0.5,0.8c-0.2,0.2-0.5,0.3-0.8,0.4C737.6,114.6,737.4,114.6,737.1,114.6z M736,111.7
			h1.7c0-0.3-0.1-0.5-0.2-0.6s-0.3-0.2-0.6-0.2c-0.2,0-0.4,0.1-0.6,0.2C736.2,111.2,736.1,111.4,736,111.7z"/>
	</g>
	<g class="st8">
		<path class="st14" d="M739.8,114.5v-4.6h1.1l0.1,0.8h0c0.2-0.3,0.4-0.6,0.6-0.7c0.2-0.1,0.5-0.2,0.7-0.2c0.1,0,0.2,0,0.3,0
			s0.2,0,0.2,0.1l-0.2,1.2c-0.1,0-0.2,0-0.2-0.1c-0.1,0-0.2,0-0.3,0c-0.2,0-0.4,0.1-0.5,0.2c-0.2,0.1-0.3,0.3-0.5,0.7v2.7H739.8z"/>
	</g>
</g>
</svg>
