<?xml version="1.0" encoding="utf-8"?>
<!-- Generator: Adobe Illustrator 24.3.0, SVG Export Plug-In . SVG Version: 6.00 Build 0)  -->
<svg version="1.1" id="Capa_1" xmlns="http://www.w3.org/2000/svg" xmlns:xlink="http://www.w3.org/1999/xlink" x="0px" y="0px"
	 viewBox="0 0 31 109" style="enable-background:new 0 0 31 109;" xml:space="preserve">
<style type="text/css">
	.st0{fill:#F4AD03;}
	.st1{fill:#1F7A70;}
</style>
<g transform="translate(0 -0.187)">
	<path class="st0" d="M0,0.2h1c16.6,0,30,13.4,30,30v49c0,16.6-13.4,30-30,30H0l0,0V0.2L0,0.2z"/>
	<g transform="translate(7.5 42.161)">
		<path class="st1" d="M15.4,14.1L3.6,24.5c-0.9,0.8-2.3,0.7-3-0.2C0.2,23.9,0,23.4,0,22.8V2.2C0,1,1,0,2.2,0c0.5,0,1,0.2,1.4,0.5
			l11.8,10.3c0.9,0.8,1,2.1,0.2,3C15.5,14,15.5,14.1,15.4,14.1L15.4,14.1z"/>
	</g>
</g>
</svg>
