<?xml version="1.0" encoding="utf-8"?>
<!-- Generator: Adobe Illustrator 24.3.0, SVG Export Plug-In . SVG Version: 6.00 Build 0)  -->
<svg version="1.1" id="Capa_1" xmlns="http://www.w3.org/2000/svg" xmlns:xlink="http://www.w3.org/1999/xlink" x="0px" y="0px"
	 viewBox="0 0 186.9 43.2" style="enable-background:new 0 0 186.9 43.2;" xml:space="preserve">
<style type="text/css">
	.st0{fill:none;stroke:#000000;stroke-width:0.6883;stroke-miterlimit:10;}
	.st1{fill:#6EB993;}
	.st2{fill:#FFFFFF;}
	.st3{fill:none;stroke:#FFFFFF;stroke-width:0.6883;stroke-miterlimit:10;}
	.st4{fill:#010202;}
	.st5{fill:#E31931;}
	.st6{fill:#0E5599;}
	.st7{fill:#FAD000;}
	.st8{fill:#E32729;}
	.st9{fill:#FFB71B;}
</style>
<g>
	<g>
		<path class="st2" d="M10.2,17.1H6.3V9.1h3.8v1.2H7.7v2.1h1.9v1.2H7.7v2.2h2.5V17.1z"/>
		<path class="st2" d="M12.2,17.1h-1.3l0.5-7.9h1.5L14,13l0.2,1.2h0c0.1-0.6,0.2-1,0.2-1.2l1.1-3.9h1.5l0.5,7.9h-1.3L16,12.6
			c0-0.4,0-0.7,0-1l0-0.2h0c-0.1,0.5-0.2,1-0.3,1.3l-0.8,3h-1.3l-0.8-3l-0.3-1.3h0v0.2c0,0,0,0.1,0,0.1c0,0,0,0.1,0,0.2
			c0,0.1,0,0.1,0,0.2c0,0.2,0,0.4,0,0.5L12.2,17.1z"/>
		<path class="st2" d="M20,17.1h-1.4V9.1h2.3c0.7,0,1.2,0.2,1.7,0.7c0.4,0.5,0.7,1.1,0.7,1.9c0,0.8-0.2,1.4-0.7,1.9
			c-0.4,0.5-1,0.7-1.7,0.7H20V17.1z M20,10.3v2.8h0.7c0.4,0,0.7-0.1,0.9-0.4c0.2-0.3,0.3-0.6,0.3-1c0-0.4-0.1-0.8-0.3-1
			c-0.2-0.3-0.5-0.4-0.8-0.4H20z"/>
		<path class="st2" d="M25.4,17.1h-1.4V9.1h2.3c0.4,0,0.7,0.1,1,0.2c0.4,0.2,0.7,0.5,0.9,0.8c0.2,0.4,0.3,0.8,0.3,1.3
			c0,0.5-0.1,0.9-0.3,1.3c-0.2,0.4-0.5,0.7-0.8,0.9v0c0.1,0.1,0.2,0.3,0.2,0.4l1.3,2.9h-1.5l-1.2-3h-0.9V17.1z M25.4,10.3v2.5h0.7
			c0.3,0,0.5-0.1,0.8-0.4c0.2-0.2,0.3-0.6,0.3-0.9c0-0.5-0.1-0.8-0.4-1.1c-0.2-0.1-0.4-0.2-0.6-0.2H25.4z"/>
		<path class="st2" d="M33.6,17.1h-3.9V9.1h3.8v1.2h-2.4v2.1H33v1.2h-1.9v2.2h2.5V17.1z"/>
		<path class="st2" d="M34.1,16.4l0.6-1.2c0.4,0.4,0.9,0.7,1.4,0.7c0.3,0,0.5-0.1,0.7-0.3c0.2-0.2,0.3-0.4,0.3-0.7
			c0-0.2-0.1-0.4-0.2-0.5c-0.1-0.2-0.2-0.3-0.4-0.4c-0.2-0.1-0.3-0.2-0.5-0.4c-0.2-0.1-0.4-0.3-0.6-0.4c-0.2-0.1-0.4-0.3-0.5-0.5
			c-0.2-0.2-0.3-0.4-0.4-0.6c-0.1-0.3-0.2-0.5-0.2-0.8c0-0.7,0.2-1.2,0.6-1.6c0.4-0.4,1-0.6,1.7-0.6c0.7,0,1.2,0.2,1.8,0.5l-0.5,1.2
			c-0.1-0.1-0.3-0.2-0.6-0.3c-0.2-0.1-0.5-0.1-0.7-0.1c-0.3,0-0.6,0.1-0.7,0.3c-0.2,0.2-0.3,0.4-0.3,0.7c0,0.5,0.3,0.9,1,1.3
			c0.3,0.1,0.5,0.3,0.6,0.4c0.2,0.1,0.3,0.3,0.6,0.5c0.2,0.2,0.4,0.4,0.5,0.7c0.1,0.3,0.2,0.6,0.2,0.9c0,0.7-0.2,1.2-0.6,1.6
			c-0.4,0.4-1,0.7-1.7,0.7C35.3,17.2,34.7,16.9,34.1,16.4z"/>
		<path class="st2" d="M40,17.1h-1.4l2.1-7.9h1.5l2.1,7.9h-1.4l-0.5-2h-1.9L40,17.1z M41.2,11.7l-0.5,2.1h1.5l-0.5-2.1l-0.2-1.2h0
			C41.4,11,41.3,11.4,41.2,11.7z"/>
		<path class="st2" d="M49,17.1h-2.2V9.1H49c1,0,1.8,0.3,2.3,1c0.6,0.7,0.9,1.7,0.9,2.9c0,1.2-0.3,2.2-0.9,2.9
			C50.7,16.7,50,17.1,49,17.1z M48.1,10.3v5.5h0.8c0.6,0,1-0.2,1.4-0.7c0.3-0.5,0.5-1.2,0.5-2c0-0.9-0.2-1.5-0.5-2
			c-0.3-0.5-0.8-0.7-1.4-0.7H48.1z"/>
		<path class="st2" d="M57.1,17.1h-3.9V9.1h3.8v1.2h-2.4v2.1h1.9v1.2h-1.9v2.2h2.5V17.1z"/>
		<path class="st2" d="M61.4,17.1h-1.4V9.1h2.3c0.4,0,0.7,0.1,1,0.2c0.4,0.2,0.7,0.5,0.9,0.8c0.2,0.4,0.3,0.8,0.3,1.3
			c0,0.5-0.1,0.9-0.3,1.3c-0.2,0.4-0.5,0.7-0.8,0.9v0c0.1,0.1,0.2,0.3,0.2,0.4l1.3,2.9h-1.5l-1.2-3h-0.9V17.1z M61.4,10.3v2.5h0.7
			c0.3,0,0.5-0.1,0.8-0.4c0.2-0.2,0.3-0.6,0.3-0.9c0-0.5-0.1-0.8-0.4-1.1c-0.2-0.1-0.4-0.2-0.6-0.2H61.4z"/>
		<path class="st2" d="M69.6,17.1h-3.9V9.1h3.8v1.2h-2.4v2.1H69v1.2h-1.9v2.2h2.5V17.1z"/>
		<path class="st2" d="M71.8,17.1h-1.3V9.1H72l2,4.5c0.1,0.2,0.2,0.5,0.3,1l0.1,0.2h0c-0.1-0.5-0.1-0.9-0.1-1.2V9.1h1.3v7.9h-1.4
			l-2-4.5c-0.1-0.2-0.2-0.6-0.3-1l-0.1-0.2h0c0.1,0.5,0.1,0.9,0.1,1.2V17.1z"/>
		<path class="st2" d="M76.7,13c0-1.2,0.3-2.2,0.9-2.9C78.1,9.4,78.9,9,79.8,9c1,0,1.7,0.4,2.3,1.1c0.6,0.8,0.9,1.7,0.9,2.9
			c0,1.2-0.3,2.2-0.9,3c-0.6,0.8-1.4,1.2-2.3,1.2c-1,0-1.8-0.4-2.3-1.2C76.9,15.3,76.7,14.3,76.7,13z M78,13c0,0.9,0.2,1.6,0.5,2.1
			c0.3,0.5,0.8,0.8,1.3,0.8c0.6,0,1-0.3,1.3-0.8s0.5-1.2,0.5-2.1c0-0.8-0.2-1.5-0.5-2c-0.3-0.5-0.8-0.7-1.3-0.7
			c-0.6,0-1,0.2-1.3,0.7C78.2,11.5,78,12.2,78,13z"/>
		<path class="st2" d="M86.8,17.1h-1.4l-2.2-7.9h1.5l1.2,5.2l0.2,1.1h0c0.1-0.5,0.1-0.9,0.2-1.1l1.2-5.2H89L86.8,17.1z"/>
		<path class="st2" d="M90,17.1h-1.4l2.1-7.9h1.5l2.1,7.9h-1.4l-0.5-2h-1.9L90,17.1z M91.2,11.7l-0.5,2.1h1.5l-0.5-2.1l-0.2-1.2h0
			C91.3,11,91.3,11.4,91.2,11.7z"/>
		<path class="st2" d="M97.9,9c0.8,0,1.4,0.2,1.9,0.7l-0.6,1.2c-0.1-0.2-0.3-0.3-0.6-0.4c-0.3-0.1-0.5-0.2-0.7-0.2
			c-0.7,0-1.2,0.3-1.6,0.8c-0.4,0.5-0.6,1.2-0.6,2c0,0.8,0.2,1.5,0.6,2c0.4,0.6,0.9,0.8,1.5,0.8c0.5,0,1-0.2,1.5-0.6l0.6,1.2
			c-0.6,0.5-1.3,0.7-2.1,0.7c-1,0-1.9-0.4-2.5-1.2c-0.6-0.8-0.9-1.8-0.9-3c0-1.2,0.3-2.2,0.9-2.9C96,9.4,96.8,9,97.9,9z"/>
		<path class="st2" d="M102.1,17.1h-1.4V9.1h1.4V17.1z"/>
		<path class="st2" d="M103.1,13c0-1.2,0.3-2.2,0.9-2.9c0.6-0.8,1.4-1.1,2.3-1.1c1,0,1.7,0.4,2.3,1.1c0.6,0.8,0.9,1.7,0.9,2.9
			c0,1.2-0.3,2.2-0.9,3c-0.6,0.8-1.4,1.2-2.3,1.2c-1,0-1.8-0.4-2.3-1.2C103.3,15.3,103.1,14.3,103.1,13z M104.5,13
			c0,0.9,0.2,1.6,0.5,2.1c0.3,0.5,0.8,0.8,1.3,0.8c0.6,0,1-0.3,1.3-0.8c0.3-0.5,0.5-1.2,0.5-2.1c0-0.8-0.2-1.5-0.5-2
			c-0.3-0.5-0.8-0.7-1.3-0.7c-0.6,0-1,0.2-1.3,0.7C104.6,11.5,104.5,12.2,104.5,13z M106.7,8.6h-1l0.7-1.5h1.3L106.7,8.6z"/>
		<path class="st2" d="M111.7,17.1h-1.3V9.1h1.4l2,4.5c0.1,0.2,0.2,0.5,0.3,1l0.1,0.2h0c-0.1-0.5-0.1-0.9-0.1-1.2V9.1h1.3v7.9h-1.4
			l-2-4.5c-0.1-0.2-0.2-0.6-0.3-1l-0.1-0.2h0c0.1,0.5,0.1,0.9,0.1,1.2V17.1z"/>
		<path class="st2" d="M121.3,17.1h-1.4v-3.3l-2-4.6h1.5l0.9,2.3l0.3,1h0c0.1-0.5,0.2-0.8,0.3-1l0.9-2.3h1.5l-2,4.6V17.1z"/>
		<path class="st2" d="M127.9,17.1h-2.2V9.1h2.2c1,0,1.8,0.3,2.3,1c0.6,0.7,0.9,1.7,0.9,2.9c0,1.2-0.3,2.2-0.9,2.9
			C129.6,16.7,128.9,17.1,127.9,17.1z M127,10.3v5.5h0.8c0.6,0,1-0.2,1.4-0.7c0.3-0.5,0.5-1.2,0.5-2c0-0.9-0.2-1.5-0.5-2
			c-0.3-0.5-0.8-0.7-1.4-0.7H127z"/>
		<path class="st2" d="M136,17.1h-3.9V9.1h3.8v1.2h-2.4v2.1h1.9v1.2h-1.9v2.2h2.5V17.1z"/>
		<path class="st2" d="M136.4,16.4l0.6-1.2c0.4,0.4,0.9,0.7,1.4,0.7c0.3,0,0.5-0.1,0.7-0.3c0.2-0.2,0.3-0.4,0.3-0.7
			c0-0.2-0.1-0.4-0.2-0.5s-0.2-0.3-0.4-0.4c-0.2-0.1-0.3-0.2-0.5-0.4c-0.2-0.1-0.4-0.3-0.6-0.4c-0.2-0.1-0.4-0.3-0.5-0.5
			c-0.2-0.2-0.3-0.4-0.4-0.6c-0.1-0.3-0.2-0.5-0.2-0.8c0-0.7,0.2-1.2,0.6-1.6c0.4-0.4,1-0.6,1.7-0.6c0.7,0,1.2,0.2,1.8,0.5l-0.5,1.2
			c-0.1-0.1-0.3-0.2-0.6-0.3c-0.2-0.1-0.5-0.1-0.7-0.1c-0.3,0-0.6,0.1-0.7,0.3c-0.2,0.2-0.3,0.4-0.3,0.7c0,0.5,0.3,0.9,1,1.3
			c0.3,0.1,0.5,0.3,0.6,0.4c0.2,0.1,0.3,0.3,0.6,0.5c0.2,0.2,0.4,0.4,0.5,0.7c0.1,0.3,0.2,0.6,0.2,0.9c0,0.7-0.2,1.2-0.6,1.6
			c-0.4,0.4-1,0.7-1.7,0.7C137.7,17.2,137,16.9,136.4,16.4z"/>
		<path class="st2" d="M142.3,17.1H141l2.1-7.9h1.5l2.1,7.9h-1.4l-0.5-2h-1.9L142.3,17.1z M143.5,11.7l-0.5,2.1h1.5l-0.5-2.1
			l-0.2-1.2h0C143.7,11,143.6,11.4,143.5,11.7z"/>
		<path class="st2" d="M148.6,17.1h-1.4V9.1h2.3c0.4,0,0.7,0.1,1,0.2c0.4,0.2,0.7,0.5,0.9,0.8c0.2,0.4,0.3,0.8,0.3,1.3
			c0,0.5-0.1,0.9-0.3,1.3c-0.2,0.4-0.5,0.7-0.8,0.9v0c0.1,0.1,0.2,0.3,0.2,0.4l1.3,2.9h-1.5l-1.2-3h-0.9V17.1z M148.6,10.3v2.5h0.7
			c0.3,0,0.5-0.1,0.8-0.4c0.2-0.2,0.3-0.6,0.3-0.9c0-0.5-0.1-0.8-0.4-1.1c-0.2-0.1-0.4-0.2-0.6-0.2H148.6z"/>
		<path class="st2" d="M154.3,17.1h-1.4V9.1h2.3c0.4,0,0.7,0.1,1,0.2c0.4,0.2,0.7,0.5,0.9,0.8c0.2,0.4,0.3,0.8,0.3,1.3
			c0,0.5-0.1,0.9-0.3,1.3s-0.5,0.7-0.8,0.9v0c0.1,0.1,0.2,0.3,0.2,0.4l1.3,2.9h-1.5l-1.2-3h-0.9V17.1z M154.3,10.3v2.5h0.7
			c0.3,0,0.5-0.1,0.8-0.4c0.2-0.2,0.3-0.6,0.3-0.9c0-0.5-0.1-0.8-0.4-1.1c-0.2-0.1-0.4-0.2-0.6-0.2H154.3z"/>
		<path class="st2" d="M158.2,13c0-1.2,0.3-2.2,0.9-2.9c0.6-0.8,1.4-1.1,2.3-1.1c1,0,1.7,0.4,2.3,1.1c0.6,0.8,0.9,1.7,0.9,2.9
			c0,1.2-0.3,2.2-0.9,3c-0.6,0.8-1.4,1.2-2.3,1.2c-1,0-1.8-0.4-2.3-1.2C158.5,15.3,158.2,14.3,158.2,13z M159.6,13
			c0,0.9,0.2,1.6,0.5,2.1c0.3,0.5,0.8,0.8,1.3,0.8c0.6,0,1-0.3,1.3-0.8c0.3-0.5,0.5-1.2,0.5-2.1c0-0.8-0.2-1.5-0.5-2
			c-0.3-0.5-0.8-0.7-1.3-0.7c-0.6,0-1,0.2-1.3,0.7C159.8,11.5,159.6,12.2,159.6,13z"/>
		<path class="st2" d="M169.5,17.1h-3.9V9.1h1.4v6.7h2.6V17.1z"/>
		<path class="st2" d="M174.2,17.1h-3.9V9.1h1.4v6.7h2.6V17.1z"/>
		<path class="st2" d="M174.2,13c0-1.2,0.3-2.2,0.9-2.9c0.6-0.8,1.4-1.1,2.3-1.1c1,0,1.7,0.4,2.3,1.1c0.6,0.8,0.9,1.7,0.9,2.9
			c0,1.2-0.3,2.2-0.9,3c-0.6,0.8-1.4,1.2-2.3,1.2c-1,0-1.8-0.4-2.3-1.2C174.5,15.3,174.2,14.3,174.2,13z M175.6,13
			c0,0.9,0.2,1.6,0.5,2.1c0.3,0.5,0.8,0.8,1.3,0.8c0.6,0,1-0.3,1.3-0.8s0.5-1.2,0.5-2.1c0-0.8-0.2-1.5-0.5-2
			c-0.3-0.5-0.8-0.7-1.3-0.7c-0.6,0-1,0.2-1.3,0.7C175.7,11.5,175.6,12.2,175.6,13z"/>
		<path class="st2" d="M6.3,31.6v-8.9h2.2v8.9c0,1.6,0.6,2.4,1.9,2.4s1.9-0.8,1.9-2.4v-8.9h2.3v8.9c0,1.4-0.4,2.4-1.1,3.3
			c-0.8,0.8-1.8,1.2-3,1.2c-1.3,0-2.3-0.4-3.1-1.2C6.7,34.1,6.3,33,6.3,31.6z"/>
		<path class="st2" d="M19,35.8h-2.3V22.7h3.8c0.6,0,1.2,0.1,1.7,0.4c0.6,0.3,1.1,0.7,1.4,1.4c0.4,0.6,0.5,1.3,0.5,2.1
			c0,0.8-0.2,1.5-0.5,2.2c-0.4,0.6-0.8,1.1-1.4,1.4v0c0.1,0.2,0.3,0.4,0.4,0.7l2.2,4.9h-2.5l-2-4.9H19V35.8z M19,24.7v4.2h1.2
			c0.5,0,0.9-0.2,1.2-0.6c0.3-0.4,0.5-0.9,0.5-1.6c0-0.8-0.2-1.4-0.7-1.8c-0.3-0.2-0.7-0.3-1-0.3H19z"/>
		<path class="st2" d="M29.7,35.8h-3.6V22.7h3.5c1.1,0,2,0.3,2.6,0.9c0.7,0.6,1,1.4,1,2.5c0,0.6-0.1,1.2-0.4,1.7
			c-0.3,0.5-0.6,0.9-1.1,1.1v0c0.6,0.2,1.1,0.6,1.5,1.1c0.3,0.6,0.5,1.2,0.5,2c0,1.2-0.3,2.2-1,2.8C31.9,35.5,31,35.8,29.7,35.8z
			 M28.4,24.7v3.4h1.4c0.4,0,0.7-0.2,0.9-0.5c0.2-0.3,0.3-0.7,0.3-1.2c0-0.5-0.1-0.9-0.4-1.2c-0.2-0.3-0.6-0.4-1-0.4H28.4z
			 M28.4,29.9v3.9h1.3c0.6,0,1-0.2,1.3-0.5c0.3-0.3,0.4-0.8,0.4-1.4c0-0.6-0.1-1.1-0.4-1.4c-0.3-0.4-0.6-0.5-1-0.5H28.4z"/>
		<path class="st2" d="M36.3,35.8H34l3.4-13.1h2.4l3.5,13.1h-2.3l-0.8-3.4h-3.2L36.3,35.8z M38.3,27l-0.8,3.5H40L39.1,27l-0.4-2
			h-0.1C38.6,25.8,38.4,26.4,38.3,27z"/>
		<path class="st2" d="M46.6,35.8h-2.1V22.7h2.4l3.4,7.4c0.1,0.3,0.3,0.9,0.6,1.7l0.1,0.3h0.1c-0.1-0.8-0.1-1.4-0.1-2v-7.4h2.1v13.1
			h-2.3l-3.4-7.4c-0.2-0.4-0.4-1-0.6-1.7l-0.1-0.3h-0.1c0.1,0.8,0.1,1.4,0.1,2V35.8z"/>
		<path class="st2" d="M54.5,29.2c0-2,0.5-3.6,1.4-4.8c1-1.2,2.2-1.9,3.8-1.9c1.6,0,2.9,0.6,3.8,1.9c1,1.2,1.4,2.9,1.4,4.8
			c0,2-0.5,3.7-1.4,4.9c-1,1.3-2.2,1.9-3.8,1.9c-1.6,0-2.9-0.6-3.9-1.9C55,32.9,54.5,31.2,54.5,29.2z M56.9,29.2
			c0,1.4,0.3,2.6,0.8,3.4c0.5,0.8,1.3,1.3,2.2,1.3c0.9,0,1.6-0.4,2.2-1.3c0.5-0.8,0.8-2,0.8-3.4c0-1.4-0.3-2.5-0.8-3.3
			c-0.5-0.8-1.2-1.2-2.2-1.2c-0.9,0-1.6,0.4-2.2,1.2C57.1,26.7,56.9,27.8,56.9,29.2z"/>
		<path class="st2" d="M73.8,35.8h-3.6V22.7h3.6c1.6,0,2.9,0.6,3.9,1.7c0.9,1.2,1.4,2.8,1.4,4.8c0,2.1-0.5,3.7-1.4,4.8
			C76.8,35.2,75.5,35.8,73.8,35.8z M72.5,24.7v9.1h1.3c1,0,1.7-0.4,2.3-1.2c0.5-0.8,0.8-1.9,0.8-3.4c0-1.4-0.3-2.6-0.8-3.3
			c-0.5-0.8-1.3-1.2-2.2-1.2H72.5z"/>
		<path class="st2" d="M87.2,35.8h-6.5V22.7H87v2h-4v3.5h3.2v2H83v3.6h4.2V35.8z"/>
		<path class="st2" d="M95.8,35.8h-3.6V22.7h3.5c1.1,0,2,0.3,2.6,0.9c0.7,0.6,1,1.4,1,2.5c0,0.6-0.1,1.2-0.4,1.7
			c-0.3,0.5-0.6,0.9-1.1,1.1v0c0.6,0.2,1.1,0.6,1.5,1.1c0.3,0.6,0.5,1.2,0.5,2c0,1.2-0.3,2.2-1,2.8C98,35.5,97.1,35.8,95.8,35.8z
			 M94.5,24.7v3.4h1.4c0.4,0,0.7-0.2,0.9-0.5c0.2-0.3,0.3-0.7,0.3-1.2c0-0.5-0.1-0.9-0.4-1.2c-0.2-0.3-0.6-0.4-1-0.4H94.5z
			 M94.5,29.9v3.9h1.3c0.6,0,1-0.2,1.3-0.5c0.3-0.3,0.4-0.8,0.4-1.4c0-0.6-0.1-1.1-0.4-1.4c-0.3-0.4-0.6-0.5-1-0.5H94.5z"/>
		<path class="st2" d="M100.8,29.2c0-2,0.5-3.6,1.4-4.8c1-1.2,2.2-1.9,3.8-1.9s2.9,0.6,3.8,1.9c1,1.2,1.4,2.9,1.4,4.8
			c0,2-0.5,3.7-1.4,4.9c-1,1.3-2.2,1.9-3.8,1.9c-1.6,0-2.9-0.6-3.9-1.9C101.3,32.9,100.8,31.2,100.8,29.2z M103.1,29.2
			c0,1.4,0.3,2.6,0.8,3.4c0.5,0.8,1.3,1.3,2.2,1.3c0.9,0,1.6-0.4,2.2-1.3c0.5-0.8,0.8-2,0.8-3.4c0-1.4-0.3-2.5-0.8-3.3
			c-0.5-0.8-1.2-1.2-2.2-1.2c-0.9,0-1.6,0.4-2.2,1.2C103.4,26.7,103.1,27.8,103.1,29.2z"/>
		<path class="st2" d="M112.4,29.3c0-2.1,0.5-3.7,1.6-4.9c1-1.3,2.4-1.9,4.1-1.9c1.4,0,2.5,0.4,3.5,1.1l-1,1.9
			c-0.7-0.6-1.5-0.9-2.4-0.9c-1.1,0-1.9,0.4-2.5,1.3c-0.6,0.8-0.9,2-0.9,3.3c0,1.4,0.3,2.5,0.9,3.4c0.6,0.8,1.4,1.3,2.3,1.3
			c0.9,0,1.6-0.3,2.1-0.9v-2.1h-1.5v-2h3.5v6.9h-1.8v-0.5l0-0.5h0c-0.3,0.4-0.7,0.6-1.2,0.9c-0.5,0.2-1,0.3-1.6,0.3
			c-1.4,0-2.6-0.6-3.6-1.8C113,33,112.4,31.3,112.4,29.3z"/>
		<path class="st2" d="M123.3,29.2c0-2,0.5-3.6,1.4-4.8c1-1.2,2.2-1.9,3.8-1.9c1.6,0,2.9,0.6,3.8,1.9c1,1.2,1.4,2.9,1.4,4.8
			c0,2-0.5,3.7-1.4,4.9c-1,1.3-2.2,1.9-3.8,1.9c-1.6,0-2.9-0.6-3.9-1.9C123.8,32.9,123.3,31.2,123.3,29.2z M125.6,29.2
			c0,1.4,0.3,2.6,0.8,3.4c0.5,0.8,1.3,1.3,2.2,1.3c0.9,0,1.6-0.4,2.2-1.3c0.5-0.8,0.8-2,0.8-3.4c0-1.4-0.3-2.5-0.8-3.3
			c-0.5-0.8-1.2-1.2-2.2-1.2c-0.9,0-1.6,0.4-2.2,1.2C125.9,26.7,125.6,27.8,125.6,29.2z"/>
		<path class="st2" d="M139.3,35.8h-2.2V24.7h-3.2v-2h8.6v2h-3.2V35.8z"/>
		<path class="st2" d="M143.9,35.8h-2.3l3.4-13.1h2.4l3.5,13.1h-2.3l-0.8-3.4h-3.2L143.9,35.8z M145.9,27l-0.8,3.5h2.5l-0.8-3.5
			l-0.4-2h-0.1C146.1,25.8,146,26.4,145.9,27z M147,21.8h-1.7l1.1-2.5h2.2L147,21.8z"/>
		<path class="st2" d="M158.7,35.8h-3.6V22.7h3.6c1.6,0,2.9,0.6,3.9,1.7c0.9,1.2,1.4,2.8,1.4,4.8c0,2.1-0.5,3.7-1.4,4.8
			C161.6,35.2,160.3,35.8,158.7,35.8z M157.3,24.7v9.1h1.3c1,0,1.7-0.4,2.3-1.2c0.5-0.8,0.8-1.9,0.8-3.4c0-1.4-0.3-2.6-0.8-3.3
			c-0.5-0.8-1.3-1.2-2.2-1.2H157.3z"/>
		<path class="st2" d="M167.2,35.8h-2.1v-2.3h2.1V35.8z"/>
		<path class="st2" d="M174,22.5c1.3,0,2.4,0.4,3.2,1.1l-0.9,1.9c-0.2-0.3-0.5-0.5-1-0.6c-0.4-0.2-0.8-0.3-1.2-0.3
			c-1.1,0-2,0.4-2.6,1.3c-0.6,0.9-0.9,2-0.9,3.2c0,1.3,0.3,2.5,0.9,3.4c0.6,0.9,1.5,1.4,2.5,1.4c0.8,0,1.6-0.3,2.4-1l0.9,1.9
			c-0.9,0.8-2.1,1.2-3.5,1.2c-1.7,0-3.1-0.6-4.1-1.9c-1-1.3-1.5-2.9-1.5-4.9c0-2,0.5-3.6,1.5-4.9C170.8,23.1,172.2,22.5,174,22.5z"
			/>
		<path class="st2" d="M180.6,35.8h-2.1v-2.3h2.1V35.8z"/>
	</g>
</g>
</svg>
